<svg xmlns="http://www.w3.org/2000/svg" viewBox="0 0 900 480" width="900" height="480" role="img" aria-label="Fund performance, % change over the last 90 days">
<style>
:root{--bg:#fcfcfb;--ink:#0b0b0b;--ink2:#52514e;--grid:#e4e3df;--s1:#2a78d6;--s2:#eb6834;--s3:#1baf7a;--s4:#eda100;--s5:#e87ba4;--s6:#008300;--s7:#4a3aa7;--s8:#e34948;--s9:#8a8984;}
@media (prefers-color-scheme: dark){:root{--bg:#1a1a19;--ink:#ffffff;--ink2:#c3c2b7;--grid:#383835;--s1:#3987e5;--s2:#d95926;--s3:#199e70;--s4:#c98500;--s5:#d55181;--s6:#008300;--s7:#9085e9;--s8:#e66767;--s9:#8f8e88;}}
text{font-family:-apple-system,Segoe UI,Helvetica,Arial,sans-serif;fill:var(--ink2);font-size:12px}
.t{fill:var(--ink);font-size:15px;font-weight:600}.l{fill:none;stroke-width:2;stroke-linejoin:round;stroke-linecap:round}
.b{fill:none;stroke:var(--ink);stroke-width:3.5;stroke-linejoin:round;stroke-linecap:round}
</style>
<rect width="900" height="480" fill="var(--bg)"/>
<text class="t" x="56" y="24">Fund performance: % change over the last 90 days</text>
<line x1="56" x2="790" y1="316.8" y2="316.8" stroke="var(--grid)" stroke-width="1"/>
<text x="48" y="320.8" text-anchor="end">+0%</text>
<line x1="56" x2="790" y1="215.4" y2="215.4" stroke="var(--grid)" stroke-width="1"/>
<text x="48" y="219.4" text-anchor="end">+1%</text>
<line x1="56" x2="790" y1="113.9" y2="113.9" stroke="var(--grid)" stroke-width="1"/>
<text x="48" y="117.9" text-anchor="end">+2%</text>
<line x1="56" x2="790" y1="316.8" y2="316.8" stroke="var(--ink2)" stroke-width="1"/>
<text x="56.0" y="396" text-anchor="middle">Oct 5</text>
<text x="545.3" y="396" text-anchor="middle">Oct 6</text>
<text x="790.0" y="396" text-anchor="middle">Oct 9</text>
<path class="l" stroke="var(--s1)" d="M56.0,316.8 L300.7,320.8 L545.3,239.4 L790.0,94.8"/>
<path class="l" stroke="var(--s2)" d="M56.0,316.8 L300.7,318.1 L545.3,272.2 L790.0,130.0"/>
<path class="l" stroke="var(--s3)" d="M56.0,316.8 L300.7,315.2 L545.3,303.9 L790.0,162.6"/>
<path class="l" stroke="var(--s4)" d="M56.0,316.8 L300.7,321.0 L545.3,239.3 L790.0,94.7"/>
<path class="l" stroke="var(--s5)" d="M56.0,316.8 L300.7,311.8 L545.3,317.1 L790.0,324.5"/>
<path class="l" stroke="var(--s6)" d="M56.0,316.8 L300.7,317.7 L545.3,324.2 L790.0,320.5"/>
<path class="l" stroke="var(--s7)" d="M56.0,316.8 L300.7,318.1 L545.3,318.6 L790.0,327.3"/>
<path class="l" stroke="var(--s8)" d="M56.0,316.8 L300.7,316.2 L545.3,317.4 L790.0,305.5"/>
<path class="l" stroke="var(--s9)" d="M56.0,316.8 L300.7,312.4 L545.3,223.5 L790.0,109.6"/>
<path class="b" d="M56.0,316.8 L300.7,315.7 L545.3,257.7 L790.0,268.2"/>
<line x1="790.0" x2="790.0" y1="94.8" y2="378" stroke="var(--s1)" stroke-width="1" opacity="0.5"/>
<circle cx="790.0" cy="94.8" r="6" fill="var(--s1)" stroke="var(--bg)" stroke-width="2"><title>Fund 1: residual_vol_momentum to residual_lowcorr_reversal (2026-10-09)</title></circle>
<text x="790.0" y="83.8" text-anchor="middle" style="fill:var(--ink);font-weight:600">#1</text>
<line x1="793.0" x2="798" y1="94.7" y2="94.7" stroke="var(--grid)" stroke-width="1"/>
<text x="802" y="98.7">#4 +2.2%</text>
<line x1="793.0" x2="798" y1="94.8" y2="108.7" stroke="var(--grid)" stroke-width="1"/>
<text x="802" y="112.7">#1 +2.2%</text>
<line x1="793.0" x2="798" y1="109.6" y2="122.7" stroke="var(--grid)" stroke-width="1"/>
<text x="802" y="126.7">#9 +2.0%</text>
<line x1="793.0" x2="798" y1="130.0" y2="136.7" stroke="var(--grid)" stroke-width="1"/>
<text x="802" y="140.7">#2 +1.8%</text>
<line x1="793.0" x2="798" y1="162.6" y2="162.6" stroke="var(--grid)" stroke-width="1"/>
<text x="802" y="166.6">#3 +1.5%</text>
<line x1="793.0" x2="798" y1="268.2" y2="268.2" stroke="var(--grid)" stroke-width="1"/>
<text x="802" y="272.2" style="font-weight:600;fill:var(--ink)">SPY +0.5%</text>
<line x1="793.0" x2="798" y1="305.5" y2="305.5" stroke="var(--grid)" stroke-width="1"/>
<text x="802" y="309.5">#8 +0.1%</text>
<line x1="793.0" x2="798" y1="320.5" y2="320.5" stroke="var(--grid)" stroke-width="1"/>
<text x="802" y="324.5">#6 -0.0%</text>
<line x1="793.0" x2="798" y1="324.5" y2="334.5" stroke="var(--grid)" stroke-width="1"/>
<text x="802" y="338.5">#5 -0.1%</text>
<line x1="793.0" x2="798" y1="327.3" y2="348.5" stroke="var(--grid)" stroke-width="1"/>
<text x="802" y="352.5">#7 -0.1%</text>
<line x1="56" x2="72" y1="420" y2="420" stroke="var(--s1)" stroke-width="2" stroke-linecap="round"/>
<text x="78" y="424">1. Darth Trader</text>
<line x1="261" x2="277" y1="420" y2="420" stroke="var(--s2)" stroke-width="2" stroke-linecap="round"/>
<text x="283" y="424">2. The Empire Strikes Black</text>
<line x1="466" x2="482" y1="420" y2="420" stroke="var(--s3)" stroke-width="2" stroke-linecap="round"/>
<text x="488" y="424">3. Live Long and Profit</text>
<line x1="671" x2="687" y1="420" y2="420" stroke="var(--s4)" stroke-width="2" stroke-linecap="round"/>
<text x="693" y="424">4. Marty McBuy</text>
<line x1="56" x2="72" y1="438" y2="438" stroke="var(--s5)" stroke-width="2" stroke-linecap="round"/>
<text x="78" y="442">5. Back to the Futures</text>
<line x1="261" x2="277" y1="438" y2="438" stroke="var(--s6)" stroke-width="2" stroke-linecap="round"/>
<text x="283" y="442">6. Wizard of Odds</text>
<line x1="466" x2="482" y1="438" y2="438" stroke="var(--s7)" stroke-width="2" stroke-linecap="round"/>
<text x="488" y="442">7. Frodough Baggins</text>
<line x1="671" x2="687" y1="438" y2="438" stroke="var(--s8)" stroke-width="2" stroke-linecap="round"/>
<text x="693" y="442">8. Jon Dough</text>
<line x1="56" x2="72" y1="456" y2="456" stroke="var(--s9)" stroke-width="2" stroke-linecap="round"/>
<text x="78" y="460">9. Game of Loans</text>
<line x1="261" x2="277" y1="456" y2="456" stroke="var(--ink)" stroke-width="3.5" stroke-linecap="round"/>
<text x="283" y="460">10. Spyder-man (benchmark)</text>
<circle cx="474" cy="456" r="5" fill="var(--ink2)" stroke="var(--bg)" stroke-width="2"/>
<text x="488" y="460">strategy change</text>
</svg>
